<svg data-name="Layer 1" xmlns="http://www.w3.org/2000/svg" width="113.3" height="125.89" viewBox="303.35 297.05 113.3 125.89"><path fill="#d7bff2" d="M405.32 297.05h-90.64c-6.26 0-11.33 5.07-11.33 11.33v103.23c0 6.26 5.07 11.33 11.33 11.33h90.64c6.26 0 11.33-5.07 11.33-11.33V308.38c0-6.26-5.07-11.33-11.33-11.33m5.04 114.57c0 2.78-2.26 5.04-5.04 5.04h-90.64c-2.78 0-5.04-2.26-5.04-5.04V308.39c0-2.78 2.26-5.04 5.04-5.04h90.64c2.78 0 5.04 2.26 5.04 5.04z"/><path fill="#d7bff2" d="m331.67 404.06 14.17-12.59-14.17-12.59zm51.18-51.02c-2.54-2.57-7.2-5.63-14.98-5.63-8.53 0-17.32 2.22-23.61 4.27v-35.74h-12.59v54.59l8.89-4.03c.14-.07 14.5-6.5 27.3-6.5 6.39 0 7.81 3.53 7.87 6.47v37.6h12.59V366.3c0-.81-.07-7.78-5.48-13.26Zm-16.56-16.65h12.59c5.69-6.45 8.59-13.31 9.44-20.46h-12.59c-1.39 7.14-4.49 13.97-9.44 20.46"/></svg>